<?xml version="1.0" encoding="UTF-8"?>
<svg width="600" height="400" viewBox="0 0 600 400" xmlns="http://www.w3.org/2000/svg">
  <!-- Background -->
  <rect width="600" height="400" fill="#f4f4ff" rx="15" ry="15"/>
  
  <!-- Community group representation -->
  <circle cx="180" cy="150" r="40" fill="#6146D7"/>
  <circle cx="180" cy="150" r="35" fill="#f4f4ff"/>
  <circle cx="180" cy="120" r="20" fill="#6146D7"/>
  <rect x="160" y="150" width="40" height="60" rx="10" ry="10" fill="#6146D7"/>
  
  <circle cx="260" cy="160" r="35" fill="#3F2CAF"/>
  <circle cx="260" cy="160" r="30" fill="#f4f4ff"/>
  <circle cx="260" cy="135" r="18" fill="#3F2CAF"/>
  <rect x="242" y="160" width="36" height="55" rx="10" ry="10" fill="#3F2CAF"/>
  
  <circle cx="330" cy="145" r="38" fill="#F58F29"/>
  <circle cx="330" cy="145" r="33" fill="#f4f4ff"/>
  <circle cx="330" cy="115" r="19" fill="#F58F29"/>
  <rect x="312" y="145" width="36" height="60" rx="10" ry="10" fill="#F58F29"/>
  
  <circle cx="410" cy="155" r="35" fill="#6146D7"/>
  <circle cx="410" cy="155" r="30" fill="#f4f4ff"/>
  <circle cx="410" cy="130" r="17" fill="#6146D7"/>
  <rect x="392" y="155" width="36" height="55" rx="10" ry="10" fill="#6146D7"/>
  
  <!-- Jupiter logo elements -->
  <circle cx="300" cy="280" r="60" fill="#F58F29" opacity="0.8"/>
  <ellipse cx="300" cy="280" rx="60" ry="15" fill="#C96E13" opacity="0.5"/>
  
  <!-- Connection lines -->
  <path d="M200 190 L280 220" stroke="#3F2CAF" stroke-width="2" stroke-dasharray="4,2"/>
  <path d="M260 215 L300 220" stroke="#3F2CAF" stroke-width="2" stroke-dasharray="4,2"/>
  <path d="M330 205 L320 220" stroke="#F58F29" stroke-width="2" stroke-dasharray="4,2"/>
  <path d="M400 210 L340 230" stroke="#6146D7" stroke-width="2" stroke-dasharray="4,2"/>
  
  <!-- Text representation -->
  <rect x="150" y="320" width="300" height="10" rx="5" ry="5" fill="#3F2CAF" opacity="0.7"/>
  <rect x="180" y="340" width="240" height="10" rx="5" ry="5" fill="#3F2CAF" opacity="0.7"/>
  <rect x="200" y="360" width="200" height="10" rx="5" ry="5" fill="#3F2CAF" opacity="0.7"/>
  
  <!-- Decorative elements -->
  <circle cx="100" cy="80" r="15" fill="#F58F29" opacity="0.5"/>
  <circle cx="500" cy="100" r="20" fill="#6146D7" opacity="0.5"/>
  <circle cx="120" cy="320" r="25" fill="#3F2CAF" opacity="0.3"/>
  <circle cx="480" cy="350" r="15" fill="#F58F29" opacity="0.4"/>
</svg>
