<?xml version="1.0" encoding="UTF-8"?>
<svg width="120" height="40" viewBox="0 0 120 40" fill="none" xmlns="http://www.w3.org/2000/svg">
  <circle cx="20" cy="20" r="15" fill="#3F2CAF"/>
  <path d="M20 5C12.268 5 6 11.268 6 19C6 26.732 12.268 33 20 33C27.732 33 34 26.732 34 19C34 11.268 27.732 5 20 5ZM20 30C13.925 30 9 25.075 9 19C9 12.925 13.925 8 20 8C26.075 8 31 12.925 31 19C31 25.075 26.075 30 20 30Z" fill="#F58F29"/>
  <path d="M46.144 14.68H49.28V25H52.16V14.68H55.296V12.4H46.144V14.68ZM63.1054 25L63.0574 23.272C62.7534 23.944 62.2974 24.448 61.6894 24.784C61.0974 25.12 60.4414 25.288 59.7214 25.288C58.8494 25.288 58.0974 25.08 57.4654 24.664C56.8334 24.248 56.3454 23.656 56.0014 22.888C55.6574 22.12 55.4854 21.224 55.4854 20.2C55.4854 19.16 55.6574 18.256 56.0014 17.488C56.3454 16.704 56.8334 16.104 57.4654 15.688C58.0974 15.272 58.8494 15.064 59.7214 15.064C60.4254 15.064 61.0654 15.224 61.6414 15.544C62.2334 15.864 62.6974 16.328 63.0334 16.936V12.4H65.8374V25H63.1054ZM60.7214 23.056C61.3854 23.056 61.9454 22.824 62.4014 22.36C62.8574 21.88 63.0854 21.16 63.0854 20.2C63.0854 19.24 62.8574 18.528 62.4014 18.064C61.9454 17.584 61.3854 17.344 60.7214 17.344C60.0574 17.344 59.4974 17.584 59.0414 18.064C58.5854 18.528 58.3574 19.24 58.3574 20.2C58.3574 21.16 58.5854 21.88 59.0414 22.36C59.4974 22.824 60.0574 23.056 60.7214 23.056ZM68.5329 25H71.3369V15.352H68.5329V25ZM69.9369 14.032C69.4489 14.032 69.0409 13.88 68.7129 13.576C68.3849 13.272 68.2209 12.896 68.2209 12.448C68.2209 12 68.3849 11.624 68.7129 11.32C69.0409 11.016 69.4489 10.864 69.9369 10.864C70.4249 10.864 70.8329 11.008 71.1609 11.296C71.4889 11.584 71.6529 11.952 71.6529 12.4C71.6529 12.864 71.4889 13.256 71.1609 13.576C70.8329 13.88 70.4249 14.032 69.9369 14.032ZM75.5955 15.352V17.704C75.9555 16.936 76.4435 16.36 77.0595 15.976C77.6755 15.592 78.3555 15.4 79.0995 15.4V18.424H78.2915C77.4035 18.424 76.7235 18.608 76.2515 18.976C75.7795 19.328 75.5435 19.96 75.5435 20.872V25H72.7395V15.352H75.5955ZM81.3578 25H84.1618V15.352H81.3578V25ZM82.7618 14.032C82.2738 14.032 81.8658 13.88 81.5378 13.576C81.2098 13.272 81.0458 12.896 81.0458 12.448C81.0458 12 81.2098 11.624 81.5378 11.32C81.8658 11.016 82.2738 10.864 82.7618 10.864C83.2498 10.864 83.6578 11.008 83.9858 11.296C84.3138 11.584 84.4778 11.952 84.4778 12.4C84.4778 12.864 84.3138 13.256 83.9858 13.576C83.6578 13.88 83.2498 14.032 82.7618 14.032ZM90.4444 20.104L94.1524 15.352H97.4204L93.3844 20.368L97.5644 25H94.2724L90.4444 20.728V25H87.6404V12.4H90.4444V20.104ZM107.336 20.056C107.336 20.232 107.32 20.416 107.288 20.608H99.9521C99.9841 21.376 100.176 21.952 100.52 22.336C100.88 22.704 101.352 22.888 101.936 22.888C102.352 22.888 102.704 22.784 102.992 22.576C103.28 22.368 103.488 22.088 103.616 21.736H107.096C106.984 22.344 106.728 22.904 106.328 23.416C105.944 23.928 105.432 24.336 104.792 24.64C104.152 24.928 103.424 25.072 102.608 25.072C101.616 25.072 100.744 24.864 99.9921 24.448C99.2401 24.032 98.6561 23.44 98.2401 22.672C97.8241 21.904 97.6161 21 97.6161 19.96C97.6161 18.92 97.8241 18.016 98.2401 17.248C98.6561 16.48 99.2401 15.888 99.9921 15.472C100.744 15.056 101.616 14.848 102.608 14.848C103.584 14.848 104.44 15.048 105.176 15.448C105.912 15.848 106.48 16.416 106.88 17.152C107.184 17.728 107.336 18.44 107.336 19.288V20.056ZM104.936 19.024C104.936 18.416 104.76 17.944 104.408 17.608C104.056 17.256 103.6 17.08 103.04 17.08C102.496 17.08 102.048 17.248 101.696 17.584C101.36 17.92 101.152 18.4 101.072 19.024H104.936ZM113.954 25.216C113.202 25.216 112.546 25.104 111.986 24.88C111.442 24.64 111.018 24.32 110.714 23.92C110.41 23.52 110.25 23.072 110.234 22.576H113.038C113.07 22.848 113.178 23.056 113.362 23.2C113.546 23.344 113.786 23.416 114.082 23.416C114.33 23.416 114.522 23.36 114.658 23.248C114.794 23.136 114.862 22.992 114.862 22.816C114.862 22.592 114.754 22.432 114.538 22.336C114.338 22.224 113.994 22.104 113.506 21.976C112.962 21.848 112.506 21.712 112.138 21.568C111.786 21.424 111.474 21.2 111.202 20.896C110.946 20.592 110.818 20.176 110.818 19.648C110.818 19.2 110.938 18.792 111.178 18.424C111.418 18.056 111.77 17.768 112.234 17.56C112.714 17.336 113.282 17.224 113.938 17.224C114.898 17.224 115.65 17.456 116.194 17.92C116.754 18.384 117.066 19.008 117.13 19.792H114.508C114.476 19.52 114.37 19.312 114.194 19.168C114.034 19.024 113.818 18.952 113.546 18.952C113.314 18.952 113.138 19.008 113.018 19.12C112.898 19.216 112.838 19.352 112.838 19.528C112.838 19.752 112.946 19.92 113.162 20.032C113.378 20.128 113.714 20.232 114.17 20.344C114.746 20.488 115.21 20.632 115.562 20.776C115.914 20.92 116.226 21.152 116.498 21.472C116.786 21.776 116.93 22.2 116.93 22.744C116.93 23.176 116.802 23.576 116.546 23.944C116.306 24.312 115.945 24.608 115.466 24.832C114.986 25.088 114.418 25.216 113.954 25.216Z" fill="#3F2CAF"/>
</svg>
